<svg width="100" height="90" viewBox="0 0 100 90" fill="none" xmlns="http://www.w3.org/2000/svg">
<g clip-path="url(#clip0_15_50)">
<path d="M74.9629 10.1619H23.5296C23.6968 7.27419 25.7869 5.61392 29.2584 5.61392H69.2341C72.7054 5.61392 74.7955 7.27419 74.9629 10.1619Z" fill="#EB37B2"/>
<path d="M83.2984 20.3112C81.9878 20.1296 80.5978 20.0395 79.1361 20.0395H19.3562C17.895 20.0395 16.5052 20.1295 15.195 20.3111C15.6387 16.8976 18.2878 14.9941 22.6162 14.9941H75.9172C80.2456 14.9941 82.8611 16.8976 83.2984 20.3112Z" fill="#EB37B2"/>
<path d="M19.9267 83.2847H78.6474C86.3082 83.2847 90.3425 79.8737 90.3425 73.194V70.7424L70.0081 53.9717C68.3377 52.5858 66.2184 51.9109 64.0994 51.9109C61.8991 51.9109 59.9838 52.5149 58.1907 53.936L40.4239 67.58L33.3741 62.0725C31.7034 60.758 29.9511 60.0831 28.0359 60.0831C26.2837 60.0831 24.6944 60.7937 23.0237 62.0373L8.23147 73.194C8.23147 79.8737 12.2657 83.2847 19.9267 83.2847ZM19.3562 84.2798H79.136C87.6531 84.2798 91.9315 80.5842 91.9315 73.2649V36.7745C91.9315 29.4552 87.6531 25.76 79.136 25.76H19.3562C10.8395 25.76 6.56073 29.4552 6.56073 36.7745V73.2649C6.56073 80.5842 10.8395 84.2798 19.3562 84.2798ZM19.4784 78.5591C15.4035 78.5591 13.1214 76.6406 13.1214 72.9451V37.0944C13.1214 33.3992 15.4035 31.4805 19.4784 31.4805H79.0547C83.048 31.4805 85.371 33.3992 85.371 37.0944V72.9451C85.371 76.6406 83.048 78.5591 79.0547 78.5591H19.4784Z" fill="#EB37B2"/>
<path d="M37.2861 54.8245C42.4205 54.8245 46.5771 51.0937 46.5771 46.6524C46.5771 42.211 42.4205 38.5511 37.2861 38.5511C32.1109 38.5511 27.9544 42.211 27.9544 46.6524C27.9544 51.0937 32.1109 54.8245 37.2861 54.8245Z" fill="#EB37B2"/>
</g>
<defs>
<clipPath id="clip0_15_50">
<rect width="100" height="90" fill="white"/>
</clipPath>
</defs>
</svg>
