<svg width="20" height="20" viewBox="0 0 20 20" fill="none" xmlns="http://www.w3.org/2000/svg">
<g clip-path="url(#clip0_34_6)">
<path d="M0 9.99397C0 10.5876 0.486071 11.0721 1.05513 11.0721H8.72555V18.9098C8.72555 19.4913 9.19976 19.988 9.78068 19.988C10.3616 19.988 10.8477 19.4913 10.8477 18.9098V11.0721H18.5062C19.0753 11.0721 19.5614 10.5876 19.5614 9.99397C19.5614 9.40038 19.0753 8.90372 18.5062 8.90372H10.8477V1.07814C10.8477 0.496671 10.3616 0 9.78068 0C9.19976 0 8.72555 0.496671 8.72555 1.07814V8.90372H1.05513C0.486071 8.90372 0 9.40038 0 9.99397Z" fill="#EB37B2"/>
</g>
<defs>
<clipPath id="clip0_34_6">
<rect width="20" height="20" fill="white"/>
</clipPath>
</defs>
</svg>
